<?xml version="1.0" encoding="UTF-8" standalone="no"?>
<svg
   xmlns:dc="http://purl.org/dc/elements/1.1/"
   xmlns:cc="http://creativecommons.org/ns#"
   xmlns:rdf="http://www.w3.org/1999/02/22-rdf-syntax-ns#"
   xmlns:svg="http://www.w3.org/2000/svg"
   xmlns="http://www.w3.org/2000/svg"
   xmlns:sodipodi="http://sodipodi.sourceforge.net/DTD/sodipodi-0.dtd"
   xmlns:inkscape="http://www.inkscape.org/namespaces/inkscape"
   version="1.0"
   width="744.09448"
   height="1052.3622"
   id="s1"
   inkscape:version="0.48.3.1 r9886"
   sodipodi:docname="Galactic_Empire_emblem.svg">
  <metadata
     id="metadata3782">
    <rdf:RDF>
      <cc:Work
         rdf:about="">
        <dc:format>image/svg+xml</dc:format>
        <dc:type
           rdf:resource="http://purl.org/dc/dcmitype/StillImage" />
        <dc:title />
      </cc:Work>
    </rdf:RDF>
  </metadata>
  <defs
     id="defs3780" />
  <sodipodi:namedview
     pagecolor="#ffffff"
     bordercolor="#666666"
     borderopacity="1"
     objecttolerance="10"
     gridtolerance="10"
     guidetolerance="10"
     inkscape:pageopacity="0"
     inkscape:pageshadow="2"
     inkscape:window-width="1600"
     inkscape:window-height="1106"
     id="namedview3778"
     showgrid="false"
     inkscape:zoom="1.2303658"
     inkscape:cx="403.48891"
     inkscape:cy="328.6519"
     inkscape:window-x="0"
     inkscape:window-y="31"
     inkscape:window-maximized="1"
     inkscape:current-layer="g3771"
     fit-margin-top="0"
     fit-margin-left="0"
     fit-margin-right="0"
     fit-margin-bottom="0"
     inkscape:document-units="mm"
     units="mm" />
  <g
     inkscape:groupmode="layer"
     id="layer1"
     inkscape:label="cut circle"
     style="display:none"
     transform="translate(0,452.36232)">
    <g
       style="fill:none;stroke:#0000ff;stroke-opacity:1;display:inline"
       id="g3759"
       transform="matrix(0.29478428,0,0,0.29478428,169.8738,208.34166)">
      <path
         inkscape:connector-curvature="0"
         id="path3761"
         d="m 441.42857,10.93361 c -165.60008,0 -299.99992,134.4 -300,300 0,165.60008 134.39992,299.99978 300,300 165.60008,0 299.99992,-134.39986 300,-300 0,-165.60008 -134.39992,-300.00008 -300,-300 z"
         style="fill:none;stroke:#0000ff;stroke-opacity:1" />
    </g>
  </g>
  <g
     style="display:inline"
     inkscape:label="cut emblem"
     id="g3771"
     inkscape:groupmode="layer"
     transform="translate(0,452.36232)">
    <g
       transform="translate(-141.42857,-10.93361)"
       id="g3773"
       style="fill:none;stroke:#0000ff;stroke-opacity:1;display:inline" />
    <path
       inkscape:connector-curvature="0"
       style="fill:none;stroke:#0000ff;stroke-width:0.35436007;stroke-miterlimit:4;stroke-opacity:1;stroke-dasharray:none;display:inline"
       d="m 117.12757,377.56328 c -58.579384,0 -106.122001,47.54268 -106.122031,106.12204 0,58.57938 47.542647,106.12196 106.122031,106.12203 58.57938,0 106.122,-47.54262 106.12203,-106.12203 0,-58.57938 -47.54265,-106.12207 -106.12203,-106.12204 z"
       id="path3777" />
    <path
       style="fill:none;stroke:#0000ff;stroke-width:0.35436007;stroke-miterlimit:4;stroke-opacity:1;stroke-dasharray:none;display:inline"
       d="M 114.4077,383.06734 C 79.282313,384.002 48.594361,402.89175 31.30719,430.94689 l 7.148802,4.17304 c 2.691203,-4.31394 5.68266,-8.44221 9.008666,-12.25177 l 8.171717,7.06744 c 11.674496,-13.34678 27.673481,-22.83177 45.752365,-26.37503 l -2.127213,-10.71739 c 4.925503,-0.96486 9.977003,-1.47233 15.146173,-1.61575 l 0,-8.16009 z m 5.44007,0 0,8.16009 c 5.16916,0.14342 10.22067,0.65089 15.14617,1.61575 l -2.12721,10.71739 c 18.07887,3.54326 34.07785,13.02825 45.75234,26.37503 l 8.17174,-7.06744 c 3.326,3.80956 6.31745,7.93783 9.00865,12.25177 l 7.14881,-4.17304 c -17.28717,-28.05514 -47.97514,-46.94492 -83.1005,-47.87955 z m -2.72004,37.33652 c -4.17784,-3e-5 -8.29959,0.42307 -12.25177,1.19728 l 5.96315,30.01335 c -7.25577,1.42725 -13.625532,5.26407 -18.296299,10.63603 L 69.492282,442.09439 c -5.341992,6.11866 -9.557591,13.24828 -12.240164,21.09768 l 29.002062,9.95021 c -1.121963,3.29915 -1.790108,6.86598 -1.790108,10.54304 0,3.70533 0.651544,7.22217 1.790108,10.54303 l -28.920685,9.95021 c 2.685993,7.84197 6.817755,14.98518 12.158787,21.09768 l 23.050529,-20.15613 c 4.666766,5.3468 11.062549,9.1197 18.296299,10.54303 l -5.96315,30.02498 c 3.9522,0.77426 8.07393,1.27865 12.25177,1.27865 4.17784,3e-5 8.2996,-0.50444 12.25178,-1.27865 l -5.96315,-30.02498 c 7.23375,-1.42335 13.62953,-5.19623 18.2963,-10.54303 l 23.05052,20.15613 c 5.34097,-6.11248 9.47279,-13.25576 12.15878,-21.09768 l -28.92069,-9.95021 c 1.13858,-3.32084 1.79011,-6.8377 1.79011,-10.54303 0,-3.67706 -0.66813,-7.24389 -1.79011,-10.54304 l 29.00207,-9.95021 c -2.68256,-7.84945 -6.89812,-14.97902 -12.24016,-21.09768 l -23.05052,20.15613 c -4.67077,-5.37196 -11.04053,-9.20878 -18.2963,-10.63603 l 5.96315,-30.01335 c -3.9522,-0.77421 -8.07394,-1.19728 -12.25178,-1.19728 z m -88.540565,15.30891 c -7.754413,14.26871 -12.158787,30.60102 -12.158787,47.97255 0,17.3715 4.404374,33.70383 12.158787,47.97255 l 7.148792,-4.17305 c -2.387148,-4.42521 -4.474711,-9.03521 -6.125878,-13.85589 l 10.287302,-3.48722 c -2.849106,-8.30559 -4.417146,-17.18851 -4.417146,-26.45639 0,-9.24616 1.499445,-18.16745 4.335779,-26.4564 L 29.517082,453.7417 c 1.661547,-4.86175 3.790653,-9.49542 6.218875,-13.94888 l -7.148792,-4.08005 z m 177.081135,0 -7.14881,4.08005 c 2.42822,4.45346 4.55735,9.08713 6.21889,13.94888 l -10.29893,3.48722 c 2.83634,8.28891 4.33578,17.21024 4.33578,26.4564 0,9.26788 -1.56804,18.1508 -4.41715,26.45639 l 10.2873,3.48722 c -1.65117,4.82068 -3.73874,9.43068 -6.12589,13.85589 l 7.14881,4.17305 c 7.75441,-14.26872 12.15878,-30.60108 12.15878,-47.97255 0,-17.3715 -4.40437,-33.70384 -12.15878,-47.97255 z m -167.305296,96.45656 -7.137191,4.16141 c 17.275871,28.11019 48.014716,47.03679 83.181887,47.97255 l 0,-8.16009 c -5.16917,-0.16171 -10.22067,-0.74388 -15.146173,-1.70873 l 2.127213,-10.7174 C 83.311197,560.17328 67.310171,550.69963 55.636375,537.35366 l -8.171717,7.14882 c -3.364509,-3.85048 -6.405481,-7.96079 -9.101654,-12.33315 z m 157.529446,0 c -2.69616,4.37236 -5.73714,8.48267 -9.10164,12.33315 l -8.17174,-7.14882 c -11.67378,13.34597 -27.6748,22.81962 -45.75234,26.36341 l 2.12721,10.7174 c -4.9255,0.96485 -9.97701,1.54702 -15.14617,1.70873 l 0,8.16009 c 35.16717,-0.93577 65.90598,-19.86236 83.18186,-47.97255 l -7.13718,-4.16141 z"
       id="path3779"
       inkscape:connector-curvature="0" />
  </g>
  <g
     inkscape:groupmode="layer"
     id="layer2"
     inkscape:label="burn"
     style="display:none"
     transform="translate(0,452.36232)">
    <g
       transform="translate(-141.42857,-10.93361)"
       id="l1">
      <path
         style="fill:#000000;fill-opacity:1;stroke:none"
         d="m 441.42857,10.93361 c -165.60008,0 -299.99992,134.4 -300,300 0,165.60008 134.39992,299.99978 300,300 165.60008,0 299.99992,-134.39986 300,-300 0,-165.60008 -134.39992,-300.00008 -300,-300 z"
         id="path3798"
         inkscape:connector-curvature="0" />
    </g>
    <path
       inkscape:connector-curvature="0"
       style="fill:#ffffff;fill-opacity:1;stroke:none"
       d="m 300.00004,14.70335 c -157.48402,0 -285.29694,127.81308 -285.29701,285.29702 0,157.48402 127.81299,285.2968 285.29701,285.29701 157.48402,0 285.29693,-127.81293 285.29701,-285.29701 0,-157.48402 -127.81299,-285.29709 -285.29701,-285.29702 z"
       id="path3798-2" />
    <path
       style="fill:#000000;fill-opacity:1;stroke:none"
       d="M 292.68797,29.50036 C 198.25735,32.01312 115.75632,82.79605 69.28172,158.21911 l 19.21875,11.21875 c 7.23498,-11.59756 15.27715,-22.69594 24.21875,-32.9375 l 21.96875,19 c 31.38556,-35.8813 74.397,-61.38061 123,-70.90625 l -5.71875,-28.8125 c 13.24164,-2.59392 26.82203,-3.95821 40.71875,-4.34375 l 0,-21.9375 z m 14.625,0 0,21.9375 c 13.89672,0.38554 27.47711,1.74983 40.71875,4.34375 l -5.71875,28.8125 c 48.603,9.52564 91.61444,35.02495 123,70.90625 l 21.96875,-19 c 8.9416,10.24156 16.98377,21.33994 24.21875,32.9375 l 19.21875,-11.21875 C 484.24462,82.79605 401.74353,32.01306 307.31297,29.50036 z m -7.3125,100.375 c -11.23164,-8e-5 -22.31252,1.13739 -32.9375,3.21875 l 16.03125,80.6875 c -19.5063,3.837 -36.6307,14.15181 -49.1875,28.59375 l -61.96875,-54.1875 c -14.3613,16.44936 -25.69447,35.61653 -32.90625,56.71875 l 77.96875,26.75 c -3.0163,8.86938 -4.8125,18.45839 -4.8125,28.34375 0,9.96138 1.75156,19.41597 4.8125,28.34375 l -77.75,26.75 c 7.221,21.08224 18.32878,40.28593 32.6875,56.71875 l 61.96875,-54.1875 c 12.54606,14.37426 29.74038,24.51727 49.1875,28.34375 l -16.03125,80.71875 c 10.62506,2.08148 21.70586,3.4375 32.9375,3.4375 11.23164,8e-5 22.31252,-1.35616 32.9375,-3.4375 l -16.03125,-80.71875 c 19.44712,-3.82654 36.64144,-13.96949 49.1875,-28.34375 l 61.96875,54.1875 c 14.35858,-16.43274 25.4665,-35.63665 32.6875,-56.71875 l -77.75,-26.75 c 3.06094,-8.92772 4.8125,-18.38237 4.8125,-28.34375 0,-9.88536 -1.7962,-19.47437 -4.8125,-28.34375 l 77.96875,-26.75 c -7.21178,-21.10238 -18.54481,-40.26939 -32.90625,-56.71875 l -61.96875,54.1875 c -12.5568,-14.44194 -29.6812,-24.75675 -49.1875,-28.59375 l 16.03125,-80.6875 c -10.62506,-2.08136 -21.70586,-3.21875 -32.9375,-3.21875 z M 61.96922,171.03161 c -20.84684,38.35984 -32.6875,82.26739 -32.6875,128.96875 0,46.7013 11.84066,90.60891 32.6875,128.96875 l 19.21875,-11.21875 c -6.41758,-11.89668 -12.02977,-24.29014 -16.46875,-37.25 l 27.65625,-9.375 c -7.65952,-22.32864 -11.875,-46.20934 -11.875,-71.125 0,-24.8572 4.03107,-48.84114 11.65625,-71.125 l -27.6875,-9.375 c 4.46686,-13.07028 10.19075,-25.52736 16.71875,-37.5 L 61.96922,171.03161 z m 476.0625,0 -19.21875,10.96875 c 6.528,11.97264 12.25189,24.42972 16.71875,37.5 l -27.6875,9.375 c 7.62518,22.28378 11.65625,46.2678 11.65625,71.125 0,24.91566 -4.21548,48.79636 -11.875,71.125 l 27.65625,9.375 c -4.43898,12.95986 -10.05117,25.35332 -16.46875,37.25 l 19.21875,11.21875 c 20.84684,-38.35984 32.6875,-82.26753 32.6875,-128.96875 0,-46.7013 -11.84066,-90.60891 -32.6875,-128.96875 z m -449.78125,259.3125 -19.1875,11.1875 c 46.44418,75.57102 129.08206,126.45305 223.625,128.96875 l 0,-21.9375 c -13.89672,-0.43472 -27.47711,-1.99985 -40.71875,-4.59375 l 5.71875,-28.8125 c -48.5994,-9.52706 -91.61634,-34.99588 -123,-70.875 l -21.96875,19.21875 C 103.67414,453.1488 95.49883,442.09869 88.25047,430.34411 z m 423.5,0 c -7.24836,11.75458 -15.42367,22.80469 -24.46875,33.15625 l -21.96875,-19.21875 c -31.38366,35.87912 -74.4006,61.34794 -123,70.875 l 5.71875,28.8125 c -13.24164,2.5939 -26.82203,4.15903 -40.71875,4.59375 l 0,21.9375 c 94.54294,-2.51576 177.18076,-53.39773 223.625,-128.96875 l -19.1875,-11.1875 z"
       id="path3796"
       inkscape:connector-curvature="0" />
  </g>
</svg>
