<?xml version="1.0" encoding="UTF-8" standalone="no"?>
<svg
   xmlns:dc="http://purl.org/dc/elements/1.1/"
   xmlns:cc="http://creativecommons.org/ns#"
   xmlns:rdf="http://www.w3.org/1999/02/22-rdf-syntax-ns#"
   xmlns:svg="http://www.w3.org/2000/svg"
   xmlns="http://www.w3.org/2000/svg"
   xmlns:sodipodi="http://sodipodi.sourceforge.net/DTD/sodipodi-0.dtd"
   xmlns:inkscape="http://www.inkscape.org/namespaces/inkscape"
   version="1.0"
   width="600"
   height="600"
   id="s1"
   inkscape:version="0.48.3.1 r9886"
   sodipodi:docname="Galactic_Empire_emblem.svg">
  <metadata
     id="metadata3782">
    <rdf:RDF>
      <cc:Work
         rdf:about="">
        <dc:format>image/svg+xml</dc:format>
        <dc:type
           rdf:resource="http://purl.org/dc/dcmitype/StillImage" />
        <dc:title />
      </cc:Work>
    </rdf:RDF>
  </metadata>
  <defs
     id="defs3780" />
  <sodipodi:namedview
     pagecolor="#ffffff"
     bordercolor="#666666"
     borderopacity="1"
     objecttolerance="10"
     gridtolerance="10"
     guidetolerance="10"
     inkscape:pageopacity="0"
     inkscape:pageshadow="2"
     inkscape:window-width="1600"
     inkscape:window-height="1106"
     id="namedview3778"
     showgrid="false"
     inkscape:zoom="0.6151829"
     inkscape:cx="-82.545398"
     inkscape:cy="277.46824"
     inkscape:window-x="0"
     inkscape:window-y="31"
     inkscape:window-maximized="1"
     inkscape:current-layer="g3771"
     fit-margin-top="0"
     fit-margin-left="0"
     fit-margin-right="0"
     fit-margin-bottom="0" />
  <g
     inkscape:groupmode="layer"
     id="layer1"
     inkscape:label="cut circle"
     style="display:none">
    <g
       style="fill:none;stroke:#0000ff;stroke-opacity:1;display:inline"
       id="g3759"
       transform="matrix(0.29478428,0,0,0.29478428,169.8738,208.34166)">
      <path
         inkscape:connector-curvature="0"
         id="path3761"
         d="m 441.42857,10.93361 c -165.60008,0 -299.99992,134.4 -300,300 0,165.60008 134.39992,299.99978 300,300 165.60008,0 299.99992,-134.39986 300,-300 0,-165.60008 -134.39992,-300.00008 -300,-300 z"
         style="fill:none;stroke:#0000ff;stroke-opacity:1" />
    </g>
  </g>
  <g
     style="display:inline"
     inkscape:label="cut emblem"
     id="g3771"
     inkscape:groupmode="layer">
    <g
       transform="translate(-141.42857,-10.93361)"
       id="g3773"
       style="fill:none;stroke:#0000ff;stroke-opacity:1;display:inline" />
    <path
       inkscape:connector-curvature="0"
       style="fill:none;stroke:#0000ff;stroke-width:0.29478428;stroke-opacity:1;display:inline"
       d="m 300.00001,215.89903 c -46.42381,0 -84.10105,37.67729 -84.10107,84.10108 0,46.42381 37.67726,84.10101 84.10107,84.10107 46.42381,0 84.10105,-37.67724 84.10107,-84.10107 0,-46.42381 -37.67726,-84.1011 -84.10107,-84.10108 z"
       id="path3777" />
    <path
       style="fill:none;stroke:#0000ff;stroke-width:0.29478428;stroke-opacity:1;display:inline"
       d="m 297.84453,220.26096 c -27.83666,0.74072 -52.15667,15.71073 -65.85665,37.94426 l 5.66538,3.30711 c 2.13276,-3.41877 4.50347,-6.6904 7.13931,-9.70945 l 6.47604,5.6009 c 9.25197,-10.57724 21.93107,-18.09404 36.25847,-20.90205 l -1.6858,-8.49347 c 3.90343,-0.76465 7.90671,-1.16682 12.00325,-1.28047 l 0,-6.46683 z m 4.31122,0 0,6.46683 c 4.09653,0.11365 8.09982,0.51582 12.00325,1.28047 l -1.6858,8.49347 c 14.3274,2.80801 27.00649,10.32481 36.25846,20.90205 l 6.47605,-5.6009 c 2.63584,3.01905 5.00654,6.29068 7.1393,9.70945 l 5.66539,-3.30711 c -13.69998,-22.23353 -38.02001,-37.20356 -65.85665,-37.94426 z m -2.15561,29.58897 c -3.31091,-2e-5 -6.57738,0.33529 -9.70946,0.94884 l 4.72576,23.7854 c -5.75015,1.13109 -10.79815,4.17174 -14.4997,8.42899 l -18.26741,-15.97362 c -4.23349,4.84901 -7.57433,10.49919 -9.70025,16.71979 l 22.98396,7.88548 c -0.88915,2.61456 -1.41865,5.44125 -1.41865,8.3553 0,2.93645 0.51634,5.72352 1.41865,8.35529 l -22.91947,7.88548 c 2.12863,6.21471 5.40303,11.87566 9.63576,16.71979 l 18.26741,-15.97362 c 3.69838,4.23731 8.767,7.22731 14.4997,8.35529 l -4.72576,23.79462 c 3.1321,0.61359 6.39855,1.01332 9.70946,1.01332 3.31091,2e-5 6.57738,-0.39977 9.70946,-1.01332 l -4.72576,-23.79462 c 5.7327,-1.128 10.80132,-4.11798 14.4997,-8.35529 l 18.26741,15.97362 c 4.23268,-4.84411 7.50712,-10.50512 9.63576,-16.71979 l -22.91948,-7.88548 c 0.90232,-2.63175 1.41865,-5.41884 1.41865,-8.35529 0,-2.91405 -0.52949,-5.74074 -1.41865,-8.3553 l 22.98397,-7.88548 c -2.12592,-6.22064 -5.46672,-11.87078 -9.70025,-16.71979 l -18.26741,15.97362 c -3.70155,-4.25725 -8.74955,-7.2979 -14.4997,-8.42899 l 4.72576,-23.7854 c -3.1321,-0.61355 -6.39855,-0.94884 -9.70946,-0.94884 z m -70.16787,12.13222 c -6.14532,11.30787 -9.63576,24.25113 -9.63576,38.01796 0,13.76681 3.49044,26.71008 9.63576,38.01796 l 5.66538,-3.30712 c -1.8918,-3.50695 -3.54618,-7.16035 -4.85472,-10.98071 l 8.15262,-2.7636 c -2.2579,-6.58213 -3.50056,-13.62179 -3.50056,-20.96653 0,-7.32752 1.1883,-14.3976 3.43608,-20.96654 l -8.16184,-2.7636 c 1.31676,-3.85291 3.00407,-7.52506 4.92842,-11.05441 l -5.66538,-3.23341 z m 140.33574,0 -5.66539,3.23341 c 1.92435,3.52935 3.61167,7.2015 4.92843,11.05441 l -8.16184,2.7636 c 2.24778,6.56891 3.43608,13.63902 3.43608,20.96654 0,7.34474 -1.24266,14.3844 -3.50057,20.96653 l 8.15263,2.7636 c -1.30854,3.82036 -2.96293,7.47376 -4.85473,10.98071 l 5.66539,3.30712 c 6.14532,-11.30788 9.63576,-24.25118 9.63576,-38.01796 0,-13.76681 -3.49044,-26.71009 -9.63576,-38.01796 z m -132.58844,76.44124 -5.65618,3.2979 c 13.69102,22.27715 38.05137,37.27637 65.92114,38.01796 l 0,-6.46683 c -4.09654,-0.12815 -8.09982,-0.58952 -12.00325,-1.35416 l 1.6858,-8.49347 c -14.32634,-2.80843 -27.00706,-10.31624 -36.25847,-20.89284 l -6.47604,5.66539 c -2.66635,-3.05148 -5.0763,-6.30888 -7.213,-9.77395 z m 124.84114,0 c -2.1367,3.46507 -4.54666,6.72247 -7.213,9.77395 l -6.47605,-5.66539 c -9.25141,10.5766 -21.93212,18.08441 -36.25846,20.89284 l 1.6858,8.49347 c -3.90343,0.76464 -7.90672,1.22601 -12.00325,1.35416 l 0,6.46683 c 27.86977,-0.7416 52.2301,-15.74081 65.92113,-38.01796 l -5.65617,-3.2979 z"
       id="path3779"
       inkscape:connector-curvature="0" />
  </g>
  <g
     inkscape:groupmode="layer"
     id="layer2"
     inkscape:label="burn"
     style="display:none">
    <g
       transform="translate(-141.42857,-10.93361)"
       id="l1">
      <path
         style="fill:#000000;fill-opacity:1;stroke:none"
         d="m 441.42857,10.93361 c -165.60008,0 -299.99992,134.4 -300,300 0,165.60008 134.39992,299.99978 300,300 165.60008,0 299.99992,-134.39986 300,-300 0,-165.60008 -134.39992,-300.00008 -300,-300 z"
         id="path3798"
         inkscape:connector-curvature="0" />
    </g>
    <path
       inkscape:connector-curvature="0"
       style="fill:#ffffff;fill-opacity:1;stroke:none"
       d="m 300.00004,14.70335 c -157.48402,0 -285.29694,127.81308 -285.29701,285.29702 0,157.48402 127.81299,285.2968 285.29701,285.29701 157.48402,0 285.29693,-127.81293 285.29701,-285.29701 0,-157.48402 -127.81299,-285.29709 -285.29701,-285.29702 z"
       id="path3798-2" />
    <path
       style="fill:#000000;fill-opacity:1;stroke:none"
       d="M 292.68797,29.50036 C 198.25735,32.01312 115.75632,82.79605 69.28172,158.21911 l 19.21875,11.21875 c 7.23498,-11.59756 15.27715,-22.69594 24.21875,-32.9375 l 21.96875,19 c 31.38556,-35.8813 74.397,-61.38061 123,-70.90625 l -5.71875,-28.8125 c 13.24164,-2.59392 26.82203,-3.95821 40.71875,-4.34375 l 0,-21.9375 z m 14.625,0 0,21.9375 c 13.89672,0.38554 27.47711,1.74983 40.71875,4.34375 l -5.71875,28.8125 c 48.603,9.52564 91.61444,35.02495 123,70.90625 l 21.96875,-19 c 8.9416,10.24156 16.98377,21.33994 24.21875,32.9375 l 19.21875,-11.21875 C 484.24462,82.79605 401.74353,32.01306 307.31297,29.50036 z m -7.3125,100.375 c -11.23164,-8e-5 -22.31252,1.13739 -32.9375,3.21875 l 16.03125,80.6875 c -19.5063,3.837 -36.6307,14.15181 -49.1875,28.59375 l -61.96875,-54.1875 c -14.3613,16.44936 -25.69447,35.61653 -32.90625,56.71875 l 77.96875,26.75 c -3.0163,8.86938 -4.8125,18.45839 -4.8125,28.34375 0,9.96138 1.75156,19.41597 4.8125,28.34375 l -77.75,26.75 c 7.221,21.08224 18.32878,40.28593 32.6875,56.71875 l 61.96875,-54.1875 c 12.54606,14.37426 29.74038,24.51727 49.1875,28.34375 l -16.03125,80.71875 c 10.62506,2.08148 21.70586,3.4375 32.9375,3.4375 11.23164,8e-5 22.31252,-1.35616 32.9375,-3.4375 l -16.03125,-80.71875 c 19.44712,-3.82654 36.64144,-13.96949 49.1875,-28.34375 l 61.96875,54.1875 c 14.35858,-16.43274 25.4665,-35.63665 32.6875,-56.71875 l -77.75,-26.75 c 3.06094,-8.92772 4.8125,-18.38237 4.8125,-28.34375 0,-9.88536 -1.7962,-19.47437 -4.8125,-28.34375 l 77.96875,-26.75 c -7.21178,-21.10238 -18.54481,-40.26939 -32.90625,-56.71875 l -61.96875,54.1875 c -12.5568,-14.44194 -29.6812,-24.75675 -49.1875,-28.59375 l 16.03125,-80.6875 c -10.62506,-2.08136 -21.70586,-3.21875 -32.9375,-3.21875 z M 61.96922,171.03161 c -20.84684,38.35984 -32.6875,82.26739 -32.6875,128.96875 0,46.7013 11.84066,90.60891 32.6875,128.96875 l 19.21875,-11.21875 c -6.41758,-11.89668 -12.02977,-24.29014 -16.46875,-37.25 l 27.65625,-9.375 c -7.65952,-22.32864 -11.875,-46.20934 -11.875,-71.125 0,-24.8572 4.03107,-48.84114 11.65625,-71.125 l -27.6875,-9.375 c 4.46686,-13.07028 10.19075,-25.52736 16.71875,-37.5 L 61.96922,171.03161 z m 476.0625,0 -19.21875,10.96875 c 6.528,11.97264 12.25189,24.42972 16.71875,37.5 l -27.6875,9.375 c 7.62518,22.28378 11.65625,46.2678 11.65625,71.125 0,24.91566 -4.21548,48.79636 -11.875,71.125 l 27.65625,9.375 c -4.43898,12.95986 -10.05117,25.35332 -16.46875,37.25 l 19.21875,11.21875 c 20.84684,-38.35984 32.6875,-82.26753 32.6875,-128.96875 0,-46.7013 -11.84066,-90.60891 -32.6875,-128.96875 z m -449.78125,259.3125 -19.1875,11.1875 c 46.44418,75.57102 129.08206,126.45305 223.625,128.96875 l 0,-21.9375 c -13.89672,-0.43472 -27.47711,-1.99985 -40.71875,-4.59375 l 5.71875,-28.8125 c -48.5994,-9.52706 -91.61634,-34.99588 -123,-70.875 l -21.96875,19.21875 C 103.67414,453.1488 95.49883,442.09869 88.25047,430.34411 z m 423.5,0 c -7.24836,11.75458 -15.42367,22.80469 -24.46875,33.15625 l -21.96875,-19.21875 c -31.38366,35.87912 -74.4006,61.34794 -123,70.875 l 5.71875,28.8125 c -13.24164,2.5939 -26.82203,4.15903 -40.71875,4.59375 l 0,21.9375 c 94.54294,-2.51576 177.18076,-53.39773 223.625,-128.96875 l -19.1875,-11.1875 z"
       id="path3796"
       inkscape:connector-curvature="0" />
  </g>
</svg>
